HIERARCHY
ROOT Hips
{
  OFFSET 0 89.5177 0.535
  CHANNELS 6 Xposition Yposition Zposition Zrotation Xrotation Yrotation
  JOINT Spine
  {
    OFFSET 12.0259 -0.162855 1.69034e-005
    CHANNELS 3 Zrotation Xrotation Yrotation
    JOINT Spine1
    {
      OFFSET 15.3169 -0.0121922 0
      CHANNELS 3 Zrotation Xrotation Yrotation
      JOINT Spine2
      {
        OFFSET 15.3176 -0.0121908 0
        CHANNELS 3 Zrotation Xrotation Yrotation
        JOINT Neck
        {
          OFFSET 19.9142 1.56338 0
          CHANNELS 3 Zrotation Xrotation Yrotation
          JOINT Head
          {
            OFFSET 6.92651 0 0
            CHANNELS 3 Zrotation Xrotation Yrotation
            End Site
            {
              OFFSET 20.7666 0 0
            }
          }
          JOINT LeftShoulder
          {
            OFFSET -6.20654 0.708824 7.28219
            CHANNELS 3 Zrotation Xrotation Yrotation
            JOINT LeftArm
            {
              OFFSET 14.108 0 -1.52588e-005
              CHANNELS 3 Zrotation Xrotation Yrotation
              JOINT LeftForeArm
              {
                OFFSET 28.5802 0 0
                CHANNELS 3 Zrotation Xrotation Yrotation
                JOINT LeftHand
                {
                  OFFSET 27.092 0 0
                  CHANNELS 3 Zrotation Xrotation Yrotation
                  End Site
                  {
                    OFFSET 9.55928 -0.186424 0.145352
                  }
                }
              }
            }
          }
          JOINT RightShoulder
          {
            OFFSET -6.20654 0.708866 -7.28218
            CHANNELS 3 Zrotation Xrotation Yrotation
            JOINT RightArm
            {
              OFFSET 14.108 0 1.52588e-005
              CHANNELS 3 Zrotation Xrotation Yrotation
              JOINT RightForeArm
              {
                OFFSET 28.5802 0 0
                CHANNELS 3 Zrotation Xrotation Yrotation
                JOINT RightHand
                {
                  OFFSET 27.092 0 0
                  CHANNELS 3 Zrotation Xrotation Yrotation
                  End Site
                  {
                    OFFSET 9.55929 -0.186417 -0.145354
                  }
                }
              }
            }
          }
        }
      }
    }
  }
  JOINT LeftUpLeg
  {
    OFFSET 0.005 -0.535 8.837
    CHANNELS 3 Zrotation Xrotation Yrotation
    JOINT LeftLeg
    {
      OFFSET 39.9035 0 0
      CHANNELS 3 Zrotation Xrotation Yrotation
      JOINT LeftFoot
      {
        OFFSET 39.6689 0 0
        CHANNELS 3 Zrotation Xrotation Yrotation
        JOINT LeftToe
        {
          OFFSET 10.1624 13.6296 0
          CHANNELS 3 Zrotation Xrotation Yrotation
          End Site
          {
            OFFSET 8.38147 0 0
          }
        }
      }
    }
  }
  JOINT RightUpLeg
  {
    OFFSET 0.005 -0.535 -8.837
    CHANNELS 3 Zrotation Xrotation Yrotation
    JOINT RightLeg
    {
      OFFSET 39.9035 0 0
      CHANNELS 3 Zrotation Xrotation Yrotation
      JOINT RightFoot
      {
        OFFSET 39.6689 0 0
        CHANNELS 3 Zrotation Xrotation Yrotation
        JOINT RightToe
        {
          OFFSET 10.1624 13.6296 0
          CHANNELS 3 Zrotation Xrotation Yrotation
          End Site
          {
            OFFSET 8.38147 0 0
          }
        }
      }
    }
  }
}
MOTION
Frames:	16
Frame Time:	0.0333333
200.5 88.2266 193.75 -104.967 -41.8287 172.087 1.52626 0.0738552 -0.069735 3.05261 0.146303 -0.141261 3.05261 0.146302 -0.141271 -8.30589e-012 -9.0191e-006 -5.27751e-005 -4.83762 6.07644 -6.51889 -172.049 -22.8617 -70.2265 -4.84298 7.84383 60.7592 -18.3808 0 5.1684e-015 -25.7851 -60.0459 -29.7273 -176.3 11.8244 72.4849 -15.4841 -11.4207 -63.86 -10.6495 -9.54166e-015 -0 -60.1825 69.9614 62.9609 -29.1292 10.1256 -175.996 -4.23203 -1.27222e-014 3.18055e-015 -0.646832 8.70129 -12.9173 90 -1.19271e-015 3.18055e-015 -19.1906 -15.8102 172.603 -26.3807 9.54167e-015 -0 18.1519 -6.61126 8.84563 90 1.59028e-015 6.36111e-015 
199.682 88.4067 195.332 -104.801 -43.3442 172.224 1.6466 -0.0989144 0.00287694 3.29322 -0.197229 0.00874477 3.29322 -0.197229 0.00873548 -8.30907e-012 -9.0191e-006 -5.27751e-005 -4.77841 6.02245 -6.56226 -172.225 -22.6307 -70.4622 -4.19034 6.41354 60.9777 -18.5119 0 6.55989e-015 -27.4586 -60.1924 -31.5105 -176.18 12.1336 72.3762 -16.4942 -11.0414 -63.8169 -11.9604 9.54166e-015 -0 -61.7961 69.4242 64.6851 -31.1632 14.1183 -176.002 -9.45094 6.36111e-015 -1.59028e-015 2.20907 7.25686 -10.7024 90 3.97569e-016 3.18055e-015 -19.6653 -16.7733 172.675 -26.0333 6.36111e-015 -0 17.3344 -6.27957 8.30711 90 7.95139e-016 6.36111e-015 
198.803 88.6347 196.8 -104.588 -44.7675 172.468 1.70587 -0.262119 0.0572805 3.41205 -0.52194 0.12249 3.41205 -0.521941 0.12248 -8.3043e-012 -9.0191e-006 -5.27751e-005 -4.28121 5.90784 -6.59777 -172.518 -22.2362 -70.8607 -5.8317 5.4408 61.5713 -19.3119 1.27222e-014 -2.18663e-015 -29.2968 -60.1378 -33.4582 -176.205 12.0978 72.4388 -16.7208 -10.0998 -63.6543 -14.1512 9.54166e-015 -0 -64.5912 68.7858 67.6895 -32.4992 16.2476 -176.057 -16.4752 0 3.57812e-015 4.26136 5.29979 -7.75439 90 1.59028e-015 3.18055e-015 -19.8588 -17.5065 172.694 -25.1268 -3.18056e-015 -0 16.2342 -5.84781 7.73689 90 0 -3.18055e-015 
197.938 88.8322 198.211 -104.341 -45.6936 172.605 1.70281 -0.371487 0.103802 3.40641 -0.739249 0.218754 3.40641 -0.739249 0.218744 -8.31384e-012 -9.0191e-006 -5.27751e-005 -3.67168 5.85426 -6.6818 -172.662 -22.0985 -71.1036 -9.20442 4.78401 61.9779 -21.2507 0 4.77083e-015 -30.1147 -60.2994 -34.3431 -176.25 12.0967 72.6343 -16.5498 -8.32324 -63.5737 -16.2495 0 1.59028e-015 -67.4862 67.9874 70.8307 -33.0093 16.1509 -175.91 -24.1652 6.36111e-015 -1.93815e-015 6.96475 3.98848 -5.8169 90 2.18663e-015 9.54166e-015 -19.7743 -17.5792 173.076 -23.7839 0 -1.59028e-015 14.9584 -5.17387 7.14093 90 0 -0 
197.071 88.9641 199.468 -103.971 -46.2993 172.719 1.66836 -0.473526 0.138171 3.33803 -0.94235 0.290235 3.33803 -0.94235 0.290226 -8.30907e-012 -9.0191e-006 -5.27751e-005 -3.25893 5.88361 -6.68923 -172.732 -22.0125 -71.2073 -12.6432 4.09931 62.1241 -24.3105 -6.36111e-015 -3.97569e-015 -31.2883 -60.7845 -35.6364 -176.298 12.2125 72.9945 -17.1459 -6.35436 -63.7841 -18.0074 6.36111e-015 -3.97569e-016 -70.0371 66.7873 73.642 -32.653 15.0257 -175.785 -31.5949 -3.18055e-015 -7.95139e-016 9.57937 3.82597 -5.58437 90 0 -0 -19.697 -17.6963 173.48 -22.5942 0 -7.95139e-016 13.7921 -4.88806 6.89818 90 7.95139e-016 -1.27222e-014 
196.115 89.0435 200.62 -103.763 -46.5141 172.779 1.60499 -0.573585 0.121803 3.21144 -1.14306 0.259795 3.21144 -1.14306 0.259786 -8.3035e-012 -9.0191e-006 -5.27751e-005 -3.08276 6.00761 -6.54864 -172.859 -21.8741 -71.4147 -15.9515 3.42185 62.2434 -28.1294 -3.18055e-015 6.36111e-015 -32.0534 -61.9146 -36.5422 -176.342 12.3445 73.3525 -18.6615 -4.85842 -64.0836 -20.1066 0 -0 -72.1179 65.5403 75.9731 -31.3547 13.9772 -175.826 -37.4872 0 -2.38542e-015 11.7136 4.34427 -6.35579 90 1.98785e-015 -9.54166e-015 -20.2576 -17.65 173.684 -22.1192 0 7.95139e-016 12.7322 -4.79998 6.76387 90 -7.95139e-016 -1.27222e-014 
195.154 89.0837 201.7 -103.56 -46.4586 172.757 1.53301 -0.661781 0.096794 3.06745 -1.32026 0.211433 3.06745 -1.32026 0.211424 -8.30828e-012 -9.0191e-006 -5.27751e-005 -2.87664 6.1266 -6.29703 -173.025 -21.7894 -71.7583 -19.2396 2.54208 62.3221 -31.9697 -9.54166e-015 -4.77083e-015 -33.9577 -62.7114 -38.641 -176.367 12.5772 73.7467 -20.0728 -3.80223 -64.4712 -22.8662 6.36111e-015 9.93923e-017 -73.888 64.6923 77.9714 -29.0723 13.2681 -176.004 -41.5121 6.36111e-015 -0 13.4312 4.3717 -6.40676 90 7.95139e-016 -3.18055e-015 -20.8942 -17.414 174.057 -21.8264 0 7.95139e-016 11.8896 -4.74476 6.0569 90 -1.59028e-015 -0 
194.201 89.0673 202.729 -103.17 -46.2572 172.578 1.48156 -0.760055 0.11902 2.96509 -1.5163 0.257842 2.96509 -1.5163 0.257833 -8.30589e-012 -9.0191e-006 -5.27751e-005 -2.52713 6.23256 -6.00385 -173.105 -21.8689 -72.0131 -22.4804 1.47461 62.1758 -35.762 -1.27222e-014 3.18055e-015 -35.0152 -63.4163 -39.822 -176.367 12.821 74.0329 -21.5458 -3.80538 -64.7241 -26.8394 1.27222e-014 3.57812e-015 -75.7251 64.2687 80.0423 -25.9016 12.6212 -176.12 -43.6227 0 -1.59028e-015 14.3324 4.25982 -6.25017 90 0 9.54166e-015 -21.1488 -16.8738 174.854 -21.2898 0 -1.59028e-015 11.0723 -4.34061 5.09173 90 7.95139e-016 1.90833e-014 
193.171 88.9599 203.783 -103.043 -45.9652 172.006 1.42289 -0.892322 0.168862 2.84893 -1.7797 0.360053 2.84893 -1.7797 0.360044 -8.3051e-012 -9.0191e-006 -5.27751e-005 -2.12802 6.5085 -5.76747 -173.173 -21.9599 -72.2474 -25.5335 0.578187 61.8031 -39.7586 3.18055e-015 -0 -35.9989 -64.2314 -40.9244 -176.284 13.1835 74.1047 -23.5544 -4.61471 -64.68 -31.6007 0 7.95139e-016 -77.3946 64.2233 81.9112 -22.4097 11.7701 -176.256 -43.6972 0 -6.36111e-015 13.707 4.84286 -7.10812 90 0 -0 -21.762 -16.5321 175.759 -21.0315 0 7.95139e-016 10.2636 -4.12538 4.29999 90 0 -0 
192.008 88.7432 204.895 -103.383 -45.5837 171.007 1.35054 -1.08296 0.213119 2.70582 -2.16011 0.451987 2.70582 -2.16011 0.451978 -8.30907e-012 -9.0191e-006 -5.27751e-005 -1.80986 6.96629 -5.57916 -173.31 -22.0343 -72.637 -27.9398 -0.202738 61.4443 -43.9098 -9.54166e-015 -6.36111e-015 -37.2426 -65.0308 -42.2999 -176.182 13.5263 74.0743 -25.2179 -5.24134 -64.6831 -36.0991 -6.36111e-015 2.38542e-015 -78.3809 64.2453 83.0115 -18.7156 10.4217 -176.631 -41.578 0 -7.95139e-015 16.0106 6.00458 -8.86086 90 -3.18055e-015 -0 -23.0625 -16.137 176.65 -21.2391 -1.27222e-014 -1.19271e-015 9.50767 -3.9164 3.61952 90 -7.95139e-016 -0 
190.719 88.4589 206.122 -103.976 -44.6927 169.919 1.29989 -1.23964 0.201026 2.60504 -2.47391 0.430441 2.60504 -2.47391 0.430432 -8.30907e-012 -9.0191e-006 -5.27751e-005 -1.95347 7.45832 -5.25505 -173.411 -22.19 -72.9946 -30.036 -0.727512 60.7532 -48.265 0 3.18055e-015 -38.7466 -65.9307 -43.9532 -176.053 13.8444 73.9151 -26.5526 -5.53282 -64.7753 -39.7714 6.36111e-015 3.18055e-015 -79.1971 64.4748 83.9027 -15.3779 9.96473 -176.912 -36.9633 0 -0 19.0672 5.94958 -8.82539 90 -1.59028e-015 3.18055e-015 -24.767 -14.7163 177.699 -21.3635 0 -0 8.18638 -3.13264 3.06873 90 -7.95139e-016 3.18055e-015 
189.212 88.1883 207.519 -104.964 -43.8434 168.984 1.28117 -1.44934 0.0584488 2.56506 -2.89654 0.149537 2.56506 -2.89654 0.149528 -8.30987e-012 -9.0191e-006 -5.27751e-005 -3.06198 7.98959 -4.73504 -173.606 -22.2705 -73.5272 -31.4015 -1.07648 60.0132 -52.7292 4.77083e-015 6.36111e-015 -40.0365 -66.7241 -45.363 -175.931 13.9913 73.606 -27.2303 -5.37643 -65.0997 -42.4691 6.36111e-015 3.18055e-015 -79.9078 64.681 84.6753 -13.7948 10.9168 -177.292 -31.2225 -6.36111e-015 -3.18055e-015 21.7734 5.56939 -8.29923 90 -1.59028e-015 9.54166e-015 -27.2774 -13.8233 178.136 -21.7391 0 1.78906e-015 6.67416 -2.77187 3.16468 90 0 3.18055e-015 
187.607 87.9925 209.047 -106.284 -43.242 168.1 1.29173 -1.67543 -0.174188 2.58001 -3.35389 -0.310573 2.58001 -3.35389 -0.310582 -8.30589e-012 -9.0191e-006 -5.27751e-005 -4.64486 8.08985 -3.88702 -173.835 -22.2538 -74.0794 -32.4098 -1.15976 59.1104 -56.8106 -3.18055e-015 6.36111e-015 -41.429 -67.3624 -46.8741 -175.797 14.1013 73.2146 -27.4222 -5.0723 -65.6955 -44.2402 1.27222e-014 1.11319e-014 -80.3675 64.6886 85.1866 -15.0999 12.6465 -177.358 -29.225 -3.18055e-015 -0 22.9554 5.81364 -8.68831 90 0 3.18055e-015 -30.0468 -13.6819 178.156 -21.917 3.18056e-015 -9.44227e-016 5.38973 -2.95255 3.49922 90 -7.95139e-016 -0 
186.106 87.8654 210.587 -107.374 -42.8584 167.282 1.32835 -1.83071 -0.390886 2.64621 -3.66948 -0.739596 2.64621 -3.66948 -0.739605 -8.30907e-012 -9.0191e-006 -5.27751e-005 -6.0388 7.7688 -3.03148 -174.071 -22.0957 -74.5643 -33.2517 -0.886006 58.1226 -59.8831 -4.77083e-015 -0 -41.9428 -67.8973 -47.429 -175.757 14.0716 73.0322 -27.1409 -5.12346 -66.5771 -45.2402 3.18055e-015 -1.59028e-015 -80.6086 64.7869 85.4447 -17.4835 13.9046 -176.76 -29.3286 -3.18055e-015 -0 23.6349 6.90294 -10.3532 90 -7.95139e-016 6.36111e-015 -32.5212 -14.4362 178.12 -22.4033 3.18056e-015 -1.68967e-015 6.00284 -3.6712 3.50742 90 -7.95139e-016 -0 
184.803 87.8405 211.946 -107.906 -42.5188 166.522 1.41508 -1.87616 -0.479806 2.81668 -3.76307 -0.913665 2.81668 -3.76307 -0.913674 -8.30748e-012 -9.0191e-006 -5.27751e-005 -6.76804 7.29492 -2.86143 -173.959 -22.1169 -74.301 -34.3608 -0.311425 56.755 -61.4373 -4.77083e-015 -3.18055e-015 -42.6347 -68.303 -48.1739 -175.721 14.0565 72.8777 -27.1036 -5.68382 -67.0738 -45.7373 0 -7.95139e-015 -80.7648 65.0278 85.5922 -19.7025 15.1711 -175.79 -29.8753 9.54166e-015 4.77083e-015 23.8699 7.83733 -11.7889 90 7.95139e-016 -6.36111e-015 -33.8427 -15.8578 178.345 -22.6323 -6.36111e-015 1.98785e-016 8.59817 -3.72159 2.55946 90 7.95139e-016 3.18055e-015 
183.701 87.9892 213.093 -107.655 -42.2115 166.415 1.55807 -1.83517 -0.534841 3.10134 -3.68367 -1.02017 3.10134 -3.68367 -1.02018 -8.31225e-012 -9.0191e-006 -5.27751e-005 -6.84319 7.07626 -3.10274 -173.732 -22.2386 -73.8171 -34.6823 0.0858545 56.0247 -61.2133 -3.18055e-015 -3.18055e-015 -41.0234 -68.2913 -46.4339 -175.703 13.9855 72.7281 -27.3361 -6.52097 -67.1243 -45.6452 6.36111e-015 -0 -80.572 65.4766 85.3289 -20.9315 15.2897 -175.326 -30.0993 -3.18055e-015 -1.59028e-015 23.1985 7.84486 -11.7869 90 -7.95139e-016 -0 -32.9757 -17.53 178.589 -21.2086 -3.18056e-015 1.19271e-015 9.18089 -1.56504 1.26978 90 7.95139e-016 -0 
